# xmcd
#
# Track frame offsets:
#	150
#	17281
#	37406
#	53306
#	64881
#	81581
#	93636
#	106646
#	120961
#	135481
#	149481
#	171280
#	181006
#	190981
#	203806
#	216031
#	228196
#	245506
#	263735
#
# Disc length: 3745 seconds
#
# Revision: 1
# Processed by: cddbd v1.5.2PL0 Copyright (c) Steve Scherf et al.
# Submitted via: audiograbber 1.83.01
#
DISCID=020e9f13
DTITLE=Various Artist - Country Love Songs
DYEAR=2005
DGENRE=Country
TTITLE0=Leann Rimes - I need you
TTITLE1=Tim McGraw - Please remember me
TTITLE2=Willie Nelson - Always on my mind
TTITLE3=Crystal Gayle - Don't it make my brown eyes blue
TTITLE4=Kenny Rogers - Love lifted me
TTITLE5=Tammy Wynette - Strand by your man
TTITLE6=Lynn Anderson - Honey, come back
TTITLE7=The Bellamy Brothers - If I said you had a beautiful body (would you ho
TTITLE7=ld it against me)
TTITLE8=Jeannie C. Riley - Harper Valley P.T.A.
TTITLE9=Ricky Skaggs - If that's the way you feel
TTITLE10=Wyonna Judd - To be loved by you
TTITLE11=Johnny Paycheck - Loving you beats all I've ever seen
TTITLE12=Marty Robbins - I can't help it (if I'm still in love with you)
TTITLE13=Asleep At The Wheel - Blues stay away from me
TTITLE14=Tanya Tucker - You are so beautiful
TTITLE15=George Jones - The door
TTITLE16=Janie Frickie - Sleeping with your memory
TTITLE17=Karla Bonoff - Someone to lay down beside me
TTITLE18=Valerie Carter - Cowboy angel
EXTD=
EXTT0=
EXTT1=
EXTT2=
EXTT3=
EXTT4=
EXTT5=
EXTT6=
EXTT7=
EXTT8=
EXTT9=
EXTT10=
EXTT11=
EXTT12=
EXTT13=
EXTT14=
EXTT15=
EXTT16=
EXTT17=
EXTT18=
PLAYORDER=
